<svg height="700pt" preserveAspectRatio="xMidYMid meet" viewBox="0 0 700 700" width="700pt" xmlns="http://www.w3.org/2000/svg"><g transform="matrix(.1 0 0 -.1 0 700)"><path d="m3255 5483c-820-110-1495-706-1695-1498-270-1066 385-2148 1466-2424 289-74 630-80 930-16 392 83 776 298 1049 587 135 144 174 211 190 325 21 158-91 344-243 404-82 33-213 32-297-1-52-20-79-42-195-160-230-232-424-340-711-395-110-21-326-21-444 0-509 90-907 481-1001 983-21 111-20 314 0 425 95 503 485 886 1002 982 114 22 320 22 441 1 274-48 486-165 708-392 166-169 202-189 350-189 93 0 105 2 167 33 214 105 287 355 165 561-41 69-246 277-357 363-288 222-634 366-993 413-145 19-385 18-532-2z"/><path d="m4993 3875c-100-31-196-116-242-214-23-49-26-68-26-161 0-99 2-110 33-172 38-78 106-144 189-184 74-37 195-45 278-19 118 38 215 134 254 252 67 204-40 422-243 494-65 22-179 25-243 4z"/></g></svg>