<svg fill="none" height="32" viewBox="0 0 32 32" width="32" xmlns="http://www.w3.org/2000/svg" xmlns:xlink="http://www.w3.org/1999/xlink"><clipPath id="a"><path d="m0 0h32v32h-32z"/></clipPath><g clip-path="url(#a)"><path d="m26.9072 16.0019c-.5605 0-1.1085-.0621-1.6441-.1863-.5356-.1243-.9466-.261-1.2331-.4225-.1744-.0994-.2865-.1988-.3239-.2982-.0498-.0994-.0622-.1988-.0622-.2982v-.5342c0-.2237.0747-.3355.2366-.3355.0623 0 .1246.0124.1993.0373.0623.0248.1619.0621.274.1118.3612.1615.7474.2858 1.1709.3727.4234.087.8469.1243 1.2704.1243.6726 0 1.1833-.1118 1.557-.3479.3612-.2361.548-.5716.548-1.0064 0-.2982-.0996-.5467-.2865-.7455-.1868-.1988-.548-.3852-1.0711-.5591l-1.5445-.4846c-.7847-.2485-1.3452-.6088-1.7064-1.0809-.3488-.47218-.5356-.98159-.5356-1.54071 0-.44729.0996-.84488.2864-1.18035.1869-.33547.4484-.63366.7598-.86973s.6851-.42244 1.1086-.54669.8719-.18637 1.3452-.18637c.2366 0 .4733.01242.7224.0497.2367.03727.4733.07455.6851.12425.2117.0497.4235.09939.6103.16152.1868.06212.3363.12425.4484.18637.1495.08697.2491.17395.3114.26092s.0872.1988.0872.34789v.49699c0 .22365-.0748.33547-.2367.33547-.0872 0-.2242-.03727-.411-.12425-.6103-.27334-1.2954-.41001-2.0427-.41001-.6104 0-1.0837.09939-1.42.29819s-.4982.50942-.4982.94428c0 .2982.0996.54669.3114.75791.2117.1988.5979.39759 1.1708.58392l1.5071.4846c.7723.2485 1.3203.584 1.6442 1.0188.3238.4349.4982.9319.4982 1.491 0 .4597-.0872.8697-.274 1.2301-.1869.3603-.4484.6833-.7723.9442-.3238.261-.7224.4598-1.1833.5964-.4608.1243-.959.1988-1.5071.1988zm-13.6637-.2857c-.1869 0-.3239-.0373-.4111-.0994-.0872-.0622-.1619-.2113-.2242-.4225l-2.4911-8.21274c-.0623-.21122-.0872-.3479-.0872-.42245 0-.17394.0872-.26092.2616-.26092h1.0463c.1993 0 .3363.03728.4235.0994.0747.06213.1494.21122.2117.42244l1.7936 7.01997 1.6317-7.01997c.0498-.21122.1121-.34789.1993-.42244.0872-.06212.2242-.0994.4234-.0994h.8595c.1993 0 .3363.03728.4235.0994.0872.06213.1494.21122.1993.42244l1.6815 7.11937 1.8434-7.11937c.0623-.21122.137-.34789.2117-.42244.0748-.06212.2242-.0994.4235-.0994h.984c.1744 0 .2616.08698.2616.26092 0 .0497-.0125.0994-.0125.16153-.0125.06212-.0374.14909-.0748.26092l-2.5658 8.21274c-.0623.2112-.137.3479-.2242.4225-.0872.0621-.2242.0994-.411.0994h-.9093c-.1993 0-.3363-.0373-.4235-.1119-.0872-.0745-.1495-.2112-.1993-.4224l-1.6566-6.83362-1.6441 6.83362c-.0498.2112-.1121.3479-.1993.4224-.0872.0746-.2242.1119-.4235.1119zm-8.55701-1.1555c.34875 0 .70996-.0622 1.09609-.1988.38612-.1243.72242-.3604 1.0089-.6834.17438-.1988.29893-.4224.36121-.6834.06228-.2485.09965-.5591.09965-.9194v-.4473c-.31139-.0745-.63524-.1367-.98399-.1739-.33631-.0373-.67261-.0622-.99645-.0622-.70997 0-1.2331.1367-1.58186.4225s-.52314.6958-.52314 1.23c0 .497.12456.8698.38613 1.1183.28648.2733.64769.3976 1.13346.3976zm4.32209-1.6153c0 .3976.03736.7082.12455.9443.07473.2361.19929.4846.34876.7579.04982.087.07473.1615.07473.2361 0 .1118-.06228.2112-.19929.3106l-.68506.4722c-.09964.0621-.18683.0869-.27402.0869-.1121 0-.21174-.0497-.31139-.1491-.14947-.1491-.27402-.3106-.38612-.497-.09965-.1739-.21175-.3851-.32385-.6212-.83452.9816-1.88079 1.4661-3.12635 1.4661-.8968 0-1.60677-.2485-2.11745-.7579-.52313-.5094-.7847-1.1928-.7847-2.0376 0-.907.32384-1.6277.97154-2.1868.64769-.5467 1.51958-.8325 2.60321-.8325.36121 0 .73488.0249 1.121.087.38613.0497.79716.1367 1.22065.2361v-.78277c0-.80761-.16192-1.36673-.49822-1.70219-.3363-.32305-.90926-.49699-1.73133-.49699-.37367 0-.75979.0497-1.14591.13667s-.77225.21122-1.14592.36032c-.17437.07454-.29893.12424-.37366.13667-.07474.01242-.12456.02485-.16193.02485-.14946 0-.2242-.11183-.2242-.33547v-.52184c0-.17395.02492-.29819.07474-.37274s.14946-.1491.29893-.22365c.37367-.18637.82207-.34789 1.3452-.48456.52314-.13668 1.07119-.1988 1.6566-.1988 1.27047 0 2.19218.28577 2.79005.86973.58541.57154.88435 1.44127.88435 2.6092v3.46647z" fill="#1a263e"/><g fill="#f90"><path d="m28.925 21.1582c-3.5 2.5843-8.5819 3.951-12.9538 3.951-6.12816 0-11.64598-2.2613-15.831065-6.026-.323845-.2982-.037366-.6958.361212-.4721 4.508923 2.6216 10.076553 4.1871 15.843553 4.1871 3.8861 0 8.1584-.8076 12.0819-2.4601.5854-.2485 1.0711.3976.4982.8201z"/><path d="m30.3825 19.4931c-.4484-.5715-2.9645-.2733-4.0979-.1367-.3363.0373-.3986-.2609-.0872-.4721 2.0053-1.404 5.2936-.994 5.6797-.5343.3862.4722-.0996 3.7647-1.9804 5.3302-.2865.2361-.5605.1119-.4359-.2112.4234-1.0437 1.3701-3.3919.9217-3.9759z"/></g></g></svg>