<svg fill="none" height="32" viewBox="0 0 32 32" width="32" xmlns="http://www.w3.org/2000/svg" xmlns:xlink="http://www.w3.org/1999/xlink"><clipPath id="a"><path d="m0 3h32v25h-32z"/></clipPath><g clip-path="url(#a)"><path d="m31.4795 13.2718c-.7845-.5227-2.846-.7459-4.3447-.3464-.0808-1.4776-.8505-2.7228-2.2587-3.80922l-.5213-.34637-.3474.51935c-.683 1.02614-.9707 2.39324-.8687 3.63584.0804.7657.3495 1.6263.8687 2.2508-1.9507 1.12-3.7486.8657-11.7111.8657h-12.29378416c-.03596644 1.7797.25303516 5.2032 2.45249416 7.9901.24288.3078.50945.6056.79845.8925 1.78817 1.7725 4.48989 3.0721 8.52994 3.0759 6.1634.0054 11.4441-3.292 14.6562-11.2653 1.057.0172 3.8471.1876 5.2126-2.4242.0334-.044.3474-.6927.3474-.6927l-.5205-.3464zm-23.45392-1.6276h-3.45702v3.4219h3.45702zm4.46622 0h-3.45705v3.4219h3.45705zm4.4662 0h-3.4571v3.4219h3.4571zm4.4661 0h-3.457v3.4219h3.457zm-17.86471 0h-3.457014v3.4219h3.457014zm4.46619-4.32187h-3.45702v3.42187h3.45702zm4.46622 0h-3.45705v3.42187h3.45705zm4.4662 0h-3.4571v3.42187h3.4571zm0-4.32233h-3.4571v3.42185h3.4571z" fill="#1d63ed"/></g></svg>