<svg fill="none" height="32" viewBox="0 0 32 32" width="32" xmlns="http://www.w3.org/2000/svg"><path d="m12.2104 28c-.0974-.0023-.1925-.0305-.2758-.0816-.0832-.0511-.1517-.1234-.1985-.2097-.0794-.1852-.0794-.3714.0526-.5306l5.618-7.77-9.83792 4.0312c-.07937.027-.13197.053-.21035.053-.23814 0-.44848-.1592-.50106-.3714-.07938-.2122.02578-.4505.21034-.5836l8.65119-5.1183-15.217723-.8749c-.316519-.0271-.50107735-.2653-.50107735-.5306-.0026719-.1372.04847715-.2699.14231735-.3693.09384-.0994.222782-.1573.35876-.1612l15.217723-.8749-8.65119-5.11838c-.18456-.13214-.28972-.37139-.21034-.58361.07937-.21222.26292-.37139.50106-.37139.07838 0 .13098.02603.21035.05306l9.83792 4.03022-5.618-7.79614c-.1052-.15917-.132-.37139-.0526-.53056.0794-.18519.2639-.2913.4743-.2913.132 0 .2639.05306.3691.15917l11.1834 11.21673c.1577.1591.2371.3974.2371.6096s-.0794.4244-.2371.6096l-11.1834 11.2437c-.1052.1061-.2371.1592-.3691.1592z" fill="#191919"/></svg>