<svg xmlns="http://www.w3.org/2000/svg" viewBox="0 0 128 128">
  <style>
    .green {
      fill: #00D1CA !important;
    }
    .navy {
      fill: #1A263E !important;
    }
  </style>
  <path class="green" d="M60.5 121a60.5 60.5 0 1 0 0-121 60.5 60.5 0 0 0 0 121Z"/>
  <path class="navy" d="M39.46 60.5c0-11.52 9.52-21.04 21.49-21.04a21.6 21.6 0 0 1 16.84 7.97 6.76 6.76 0 0 0 10.51-8.52 35.14 35.14 0 0 0-27.35-12.98c-19.24 0-35.02 15.38-35.02 34.57 0 19.2 15.78 34.57 35.02 34.57A35.14 35.14 0 0 0 88.3 82.1a6.76 6.76 0 0 0-10.5-8.52 21.6 21.6 0 0 1-16.85 7.97c-11.97 0-21.5-9.52-21.5-21.04Z"/>
  <path class="navy" d="M88.3 67.26a6.76 6.76 0 1 0 0-13.52 6.76 6.76 0 0 0 0 13.52Z"/>
</svg>
