<svg width="139" height="40" viewBox="0 0 139 40" fill="none" xmlns="http://www.w3.org/2000/svg">
<path d="M20 40C31.0457 40 40 31.0457 40 20C40 8.95431 31.0457 0 20 0C8.95431 0 0 8.95431 0 20C0 31.0457 8.95431 40 20 40Z" fill="#00D1CA"/>
<path d="M13.0439 20C13.0439 16.1915 16.1909 13.0435 20.1484 13.0435C22.4108 13.0435 24.4167 14.0756 25.7169 15.6794C26.4946 16.6387 27.9027 16.7859 28.8619 16.0082C29.8212 15.2306 29.9685 13.8225 29.1908 12.8632C27.0681 10.2448 23.801 8.57141 20.1484 8.57141C13.7886 8.57141 8.57184 13.6546 8.57184 20C8.57184 26.3453 13.7886 31.4286 20.1484 31.4286C23.801 31.4286 27.0681 29.7552 29.1908 27.1368C29.9685 26.1775 29.8212 24.7694 28.8619 23.9917C27.9027 23.214 26.4946 23.3613 25.7169 24.3205C24.4167 25.9244 22.4108 26.9565 20.1484 26.9565C16.1909 26.9565 13.0439 23.8084 13.0439 20Z" fill="#1A263E"/>
<path d="M29.193 22.236C30.4279 22.236 31.429 21.2349 31.429 20C31.429 18.7651 30.4279 17.764 29.193 17.764C27.958 17.764 26.9569 18.7651 26.9569 20C26.9569 21.2349 27.958 22.236 29.193 22.236Z" fill="#1A263E"/>
<path d="M75.3652 29.4215L69.6627 21.0833V23.3813V29.4215H66.4878V3.30579H69.6627V19.1436L75.3652 10.9091H79.5029L73.0566 19.8347L79.5029 29.4215H75.3652ZM88.2273 29.4215C86.8423 29.4215 85.6939 28.9818 84.7821 28.1023C83.8703 27.2228 83.4029 25.9987 83.3798 24.4299V13.9041H80.402V10.9091H83.3798V6.52003H86.5653V10.9091H90.7204V13.9041H86.5653V23.3603C86.5653 24.525 86.7846 25.3153 87.2232 25.7313C87.6618 26.1472 88.1581 26.3552 88.7121 26.3552C88.966 26.3552 89.2142 26.3255 89.4565 26.2661C89.6989 26.2067 89.924 26.1294 90.1317 26.0343L91.1359 28.958C90.3048 29.267 89.3354 29.4215 88.2273 29.4215ZM100.329 10.9091C102.974 10.9091 104.848 11.7947 106.643 13.4366C108.439 15.0786 109.61 17.773 109.398 20.9113H94.9542C95.0027 22.6322 95.585 23.6116 96.701 24.6633C97.817 25.7149 99.1513 26.2407 100.704 26.2407C102.839 26.2407 104.625 25.1344 105.52 23.0858H109.04C108.565 25.1793 106.824 27.2853 105.397 28.1667C103.969 29.0481 102.37 29.4215 100.575 29.4215C97.9546 29.4215 95.7954 28.5372 94.0971 26.7685C92.3989 24.9998 91.5334 22.5959 91.5334 19.895C91.5334 17.2181 92.3475 15.3606 93.9973 13.58C95.647 11.7994 97.7577 10.9091 100.329 10.9091ZM129.698 10.9396C134.748 10.9396 138.842 15.0769 138.842 20.1805C138.842 25.2842 134.748 29.4215 129.698 29.4215C124.648 29.4215 120.554 25.2842 120.554 20.1805C120.554 15.0769 124.648 10.9396 129.698 10.9396ZM55.754 10.9396C60.8039 10.9396 64.8976 15.0769 64.8976 20.1805C64.8976 25.2842 60.8039 29.4215 55.754 29.4215C50.7041 29.4215 46.6104 25.2842 46.6104 20.1805C46.6104 15.0769 50.7041 10.9396 55.754 10.9396ZM115.984 6.52003V10.9091H120.139V13.9041H115.984V23.3603C115.984 24.525 116.203 25.3153 116.642 25.7313C117.08 26.1472 117.577 26.3552 118.131 26.3552C118.385 26.3552 118.633 26.3255 118.875 26.2661C119.118 26.2067 119.343 26.1294 119.55 26.0343L120.554 28.958C119.723 29.267 118.754 29.4215 117.646 29.4215C116.261 29.4215 115.113 28.9818 114.201 28.1023C113.289 27.2228 112.822 25.9987 112.798 24.4299V13.9041H109.821V10.9091H112.798V6.52003H115.984ZM129.698 14.2208C126.441 14.2208 123.801 16.8891 123.801 20.1805C123.801 23.472 126.441 26.1403 129.698 26.1403C132.955 26.1403 135.595 23.472 135.595 20.1805C135.595 16.8891 132.955 14.2208 129.698 14.2208ZM55.754 14.2208C52.4972 14.2208 49.857 16.8891 49.857 20.1805C49.857 23.472 52.4972 26.1403 55.754 26.1403C59.0108 26.1403 61.651 23.472 61.651 20.1805C61.651 16.8891 59.0108 14.2208 55.754 14.2208ZM100.564 13.8714C99.2906 13.8714 98.0307 14.3465 97.1124 15.1188C96.1941 15.8911 95.3895 16.9289 95.0956 18.2321H106.008C105.746 17.0415 105.094 15.9491 104.055 15.1188C103.016 14.2885 102.107 13.8714 100.564 13.8714Z" fill="white"/>
</svg>
