<svg width="223" height="223" viewBox="0 0 223 223" fill="none" xmlns="http://www.w3.org/2000/svg">
<path d="M111.5 223C173.08 223 223 173.08 223 111.5C223 49.9203 173.08 0 111.5 0C49.9203 0 0 49.9203 0 111.5C0 173.08 49.9203 223 111.5 223Z" fill="#00D1CA"/>
<path d="M72.7176 111.5C72.7176 90.2679 90.2621 72.7174 112.325 72.7174C124.938 72.7174 136.121 78.4715 143.369 87.4129C147.705 92.7609 155.555 93.5816 160.903 89.246C166.251 84.9104 167.072 77.0603 162.736 71.7123C150.903 57.1148 132.688 47.7857 112.325 47.7857C76.8696 47.7857 47.7859 76.1246 47.7859 111.5C47.7859 146.875 76.8696 175.214 112.325 175.214C132.688 175.214 150.903 165.885 162.736 151.288C167.072 145.94 166.251 138.09 160.903 133.754C155.555 129.418 147.705 130.239 143.369 135.587C136.121 144.529 124.938 150.283 112.325 150.283C90.2621 150.283 72.7176 132.732 72.7176 111.5Z" fill="#1A263E"/>
<path d="M162.749 123.966C169.633 123.966 175.214 118.385 175.214 111.5C175.214 104.615 169.633 99.0342 162.749 99.0342C155.864 99.0342 150.283 104.615 150.283 111.5C150.283 118.385 155.864 123.966 162.749 123.966Z" fill="#1A263E"/>
</svg>
