<svg fill="none" height="32" viewBox="0 0 32 32" width="32" xmlns="http://www.w3.org/2000/svg" xmlns:xlink="http://www.w3.org/1999/xlink"><clipPath id="a"><path d="m1 0h29v32h-29z"/></clipPath><g clip-path="url(#a)"><path d="m15.5 0 14.5 7.99909v16.00181l-14.5 7.9991-14.5-7.9991v-16.00181z" fill="#fff"/><path d="m27.411 23.4491-11.4314 6.3072v-4.9113l7.1226-3.8223zm.7831-.6907v-13.18803l-4.1814 2.35693v8.4778zm-24.65004.6907 11.43144 6.3072v-4.9113l-7.1264-3.8223zm-.78307-.6907v-13.18803l4.18139 2.35693v8.4778zm.49082-14.04312 11.72369-6.46797v4.74683l-7.51232 4.03056-.05995.0329zm24.45139 0-11.7236-6.46797v4.74683l7.5123 4.02696.0599.0329z" fill="#8ed6fb"/><path d="m14.9755 23.7269-7.02897-3.7711v-7.4656l7.02897 3.9575zm1.0041 0 7.0289-3.7675v-7.4692l-7.0289 3.9575zm-7.55723-12.0991 7.05513-3.7821 7.0552 3.7821-7.0552 3.9722z" fill="#1c78c0"/></g></svg>