<svg fill="none" height="26" viewBox="0 0 26 26" width="26" xmlns="http://www.w3.org/2000/svg"><path d="m19.6 1c1.7552.19429 2.9366.63338 3.8184 1.62575 1.5816 1.77994 1.5816 4.6447 1.5816 10.37425 0 5.7296 0 8.5943-1.5816 10.3743-.8818.9924-2.0632 1.4314-3.8184 1.6257m-13.19999 0c-1.75516-.1943-2.93659-.6333-3.81838-1.6257-1.58163-1.78-1.58163-4.6447-1.58163-10.3743 0-5.72955 0-8.59431 1.58163-10.37425.88179-.99237 2.06322-1.43146 3.81838-1.62575" stroke="#fff" stroke-linecap="round" stroke-linejoin="round" stroke-width="1.5"/><g fill="#fff"><path d="m4.07978 15.162c-.18545-.14-.01838-.3302.20288-.2206 2.53834 1.2314 5.66992 1.9775 8.90874 1.9775 2.185 0 4.5857-.3802 6.7948-1.161.3292-.1251.6102.1795.2869.3797-1.9695 1.2163-4.8305 1.8623-7.2909 1.8624-3.44825 0-6.55567-1.0661-8.90242-2.838z"/><path d="m18.7405 15.0671c1.1255-.6607 2.9759-.4707 3.1914-.2505.2153.2256-.0598 1.7721-1.1132 2.5128-.1615.115-.3174.055-.246-.0949.2394-.4954.7724-1.6117.5214-1.8774-.2514-.2703-1.6647-.1301-2.3052-.065-.1914.02-.2214-.1199-.0484-.225z"/><path d="m19.3397 9c.1317 0 .2698.0052.4015.02021.1375.01502.2634.0345.389.0545.1196.025.2329.05086.3406.08086.1077.03003.1924.05961.2522.08964.0834.03987.1428.08.1787.12481.0359.03998.0546.09532.0547.16523v.23555c0 .10498-.0481.15982-.1377.15996-.0479 0-.1263-.01972-.2281-.05976-.3411-.13007-.7241-.1951-1.1489-.19512-.3413 0-.6113.04464-.7968.13974-.1855.09509-.2806.24048-.2807.44558 0 .1402.059.2609.1787.356s.3418.19.6591.2751l.8504.225c.4308.1151.7416.2756.9271.4807.1856.2052.2754.4403.2754.7005 0 .2153-.0538.4108-.1555.581-.1077.17-.2509.3203-.4363.4403-.1856.1252-.408.2153-.6654.2804-.2692.07-.5505.1046-.8556.1046-.3113 0-.6226-.0296-.9219-.0897-.2993-.06-.5329-.1253-.6885-.2004-.0957-.045-.1621-.0947-.1861-.1397-.0239-.0451-.0357-.0956-.0357-.1406v-.2549c0-.105.0481-.1555.1377-.1556.0359 0 .0723.005.1082.015s.0896.0301.1493.0501c.2036.075.4256.1357.6591.1757.2392.04.4725.0598.7116.0598.3772 0 .6711-.0551.8746-.1652s.3112-.2703.3112-.4755c0-.1402-.0542-.2556-.1619-.3507-.1078-.095-.3113-.1801-.6044-.2602l-.8683-.225c-.4369-.1151-.7601-.2854-.9576-.5106-.1976-.2202-.2996-.4657-.2996-.726 0-.2101.0541-.3953.1619-.55544.1077-.16016.2514-.30033.4309-.41045.1795-.11506.3831-.2001.6223-.26016.2395-.06006.4914-.08525.7548-.08525z"/><path clip-rule="evenodd" d="m6.99469 9.00967c.71241 0 1.23415.13575 1.5694.40605.32902.27031.49616.68098.49616 1.23138v1.6216h.01261c0 .1851.02327.3354.06518.4456.04789.1101.10855.2302.19236.3603.02981.04.041.0802.041.1151-.00005.0501-.03575.1003-.11353.1503l-.37737.2101c-.05377.0299-.10778.0448-.15558.0448-.05974-.0001-.12-.0253-.17975-.0703-.0836-.0749-.15574-.1547-.21549-.2347-.05982-.085-.11921-.1802-.185-.2953-.46684.4604-1.05351.6907-1.75967.6908-.50288 0-.90499-.12-1.19834-.3603-.29329-.2403-.44255-.5611-.44255-.9615.00005-.4253.17951-.7707.54451-1.031.36519-.2603.85082-.3902 1.46744-.3902.20331 0 .41263.0145.63386.0395.22145.0251.44912.0657.68852.1108v-.3656c0-.3802-.09535-.6455-.28066-.80073-.19158-.15518-.51557-.23028-.97654-.23028-.20945.00002-.42507.02001-.64648.06504-.2214.04504-.43702.09958-.64647.16963-.09555.03495-.16723.055-.20918.06504-.0417.01-.07177.0149-.09566.0149-.08379 0-.12611-.0496-.12614-.15465v-.24521c0-.08009.01211-.14074.04205-.17578.02994-.03488.08378-.06971.16713-.10459.20952-.09009.46143-.16494.75475-.225.29321-.06504.60434-.09577.93344-.0958zm-.01787 2.52773c-.40072 0-.6939.0654-.8914.2004-.1975.1351-.29322.3255-.29327.5757 0 .2351.0712.4107.22074.5308.14361.1251.35343.1854.6286.1855.19756 0 .40152-.0305.61704-.0905.21542-.0601.4071-.1699.56869-.32.09579-.0951.16801-.2006.20393-.3208.03587-.12.05989-.265.05991-.435v-.211c-.1735-.035-.35936-.0643-.55081-.0843-.19157-.0201-.37784-.0308-.56343-.0308z" fill-rule="evenodd"/><path d="m10.3658 9.13008c.1137.00001.1915.01507.2334.0501.0478.03003.0839.10006.1198.19511l1.006 3.31351.9334-3.31351c.0299-.09992.0658-.16504.1135-.19511.0479-.03003.132-.05009.2397-.0501h.4794c.1135.00002.1918.01509.2396.0501.0478.03012.0896.10024.1135.19511l.9461 3.35391 1.0354-3.35391c.0359-.10003.078-.1651.1198-.19511.048-.02998.1258-.0501.2334-.0501h.5571c.0954.00013.1491.04013.1493.1248 0 .02503-.0056.05083-.0116.08086-.006.02999-.0182.06996-.042.12481l-1.4433 3.86895c-.0358.0997-.0774.1649-.1251.1951-.0479.03-.1263.0501-.2281.0501h-.515c-.1136 0-.1908-.0151-.2387-.0501-.0478-.035-.0906-.0995-.1145-.1995l-.9272-3.2291-.9229 3.2238c-.0299.1001-.0657.1654-.1135.2004-.048.0349-.1322.0501-.2397.0501h-.514c-.1078 0-.1802-.015-.2281-.0501-.0478-.03-.0893-.1002-.1251-.1951l-1.40755-3.86983c-.03585-.09995-.05361-.16538-.05361-.20039.00016-.07984.04839-.1248.14401-.1248z"/></g></svg>