<svg fill="none" height="26" viewBox="0 0 26 26" width="26" xmlns="http://www.w3.org/2000/svg"><g stroke="#fff" stroke-linejoin="round" stroke-width="1.5"><path d="m19.6 1c1.7552.19429 2.9366.63338 3.8184 1.62575 1.5816 1.77994 1.5816 4.6447 1.5816 10.37425 0 5.7296 0 8.5943-1.5816 10.3743-.8818.9924-2.0632 1.4314-3.8184 1.6257m-13.19999 0c-1.75516-.1943-2.93659-.6333-3.81838-1.6257-1.58163-1.78-1.58163-4.6447-1.58163-10.3743 0-5.72955 0-8.59431 1.58163-10.37425.88179-.99237 2.06322-1.43146 3.81838-1.62575" stroke-linecap="round"/><path d="m13 18.8334c.1745 0 .3367-.0825.6612-.2474l2.6078-1.3253c1.154-.5864 1.731-.8797 1.731-1.344v-5.8333m-5 8.75c-.1745 0-.3367-.0825-.6612-.2474l-2.60782-1.3253c-1.15399-.5864-1.73098-.8797-1.73098-1.344v-5.8333m5 8.75v-5.8334m5-2.9166c0-.4644-.577-.75762-1.731-1.34408l-2.6078-1.32531c-.3245-.16488-.4867-.24732-.6612-.24732s-.3367.08244-.6612.24732l-2.60782 1.32531c-1.15399.58646-1.73098.87968-1.73098 1.34408m10 0c0 .4643-.577.7575-1.731 1.344l-2.6078 1.3253c-.3245.1649-.4867.2473-.6612.2473m-5-2.9166c0 .4643.57699.7575 1.73098 1.344l2.60782 1.3253c.3245.1649.4867.2473.6612.2473"/><path d="m13.9917 20.98 3.9118-1.8932c1.731-.8379 2.5965-1.2568 2.5965-1.9201v-8.33335c0-.66335-.8655-1.08225-2.5965-1.92005l-3.9118-1.89329c-.4866-.23554-.73-.35332-.9917-.35332-.2618 0-.5051.11777-.9917.35332l-3.91183 1.89329c-1.73098.8378-2.59647 1.2567-2.59647 1.92005v8.33335c0 .6633.86548 1.0822 2.59643 1.92l3.91187 1.8933c.4866.2356.7299.3534.9917.3534.2617 0 .5051-.1178.9917-.3534z"/></g></svg>