<svg fill="none" height="26" viewBox="0 0 26 26" width="26" xmlns="http://www.w3.org/2000/svg"><g stroke="#fff" stroke-linejoin="round" stroke-width="1.5"><path d="m19.6 1c1.7552.19429 2.9366.63338 3.8184 1.62575 1.5816 1.77994 1.5816 4.6447 1.5816 10.37425 0 5.7296 0 8.5943-1.5816 10.3743-.8818.9924-2.0632 1.4314-3.8184 1.6257m-13.19999 0c-1.75516-.1943-2.93659-.6333-3.81838-1.6257-1.58163-1.78-1.58163-4.6447-1.58163-10.3743 0-5.72955 0-8.59431 1.58163-10.37425.88179-.99237 2.06322-1.43146 3.81838-1.62575" stroke-linecap="round"/><path d="m11.75 10.2917v-1.6667c0-1.36978 0-2.05467-.3783-2.51566-.0693-.08438-.1467-.16177-.231-.23102-.461-.37832-1.14592-.37832-2.5157-.37832s-2.05468 0-2.51566.37832c-.08438.06925-.16177.14664-.23102.23102-.37832.46099-.37832 1.14588-.37832 2.51566v1.6667c0 1.3697 0 2.0546.37832 2.5156.06925.0845.14664.1618.23102.231.46098.3784 1.14588.3784 2.51566.3784s2.0547 0 2.5157-.3784c.0843-.0692.1617-.1465.231-.231.3783-.461.3783-1.1459.3783-2.5156z"/><path d="m9.45833 15.9167h-1.66666c-.58149 0-.87223 0-1.10881.0717-.53267.1616-.94951.5785-1.11109 1.1111-.07177.2366-.07177.5274-.07177 1.1089s0 .8722.07177 1.1088c.16158.5327.57842.9495 1.11109 1.1111.23658.0717.52732.0717 1.10881.0717h1.66666c.58147 0 .87227 0 1.10877-.0717.5327-.1616.9496-.5784 1.1112-1.1111.0717-.2366.0717-.5273.0717-1.1088s0-.8723-.0717-1.1089c-.1616-.5326-.5785-.9495-1.1112-1.1111-.2365-.0717-.5273-.0717-1.10877-.0717z"/><path d="m20.5 17.375v-1.6667c0-1.3697 0-2.0547-.3783-2.5157-.0693-.0844-.1466-.1617-.231-.231-.461-.3783-1.146-.3783-2.5157-.3783-1.3698 0-2.0547 0-2.5157.3783-.0844.0693-.1617.1466-.231.231-.3783.461-.3783 1.146-.3783 2.5157v1.6667c0 1.3697 0 2.0546.3783 2.5156.0693.0845.1466.1618.231.231.461.3784 1.1459.3784 2.5157.3784 1.3697 0 2.0547 0 2.5157-.3784.0844-.0692.1617-.1465.231-.231.3783-.461.3783-1.1459.3783-2.5156z"/><path d="m18.2083 5.5h-1.6666c-.5815 0-.8723 0-1.1089.07177-.5326.16158-.9495.57842-1.1111 1.11109-.0717.23658-.0717.52732-.0717 1.10881 0 .58148 0 .87222.0717 1.10881.1616.53266.5785.9495 1.1111 1.11112.2366.0717.5274.0717 1.1089.0717h1.6666c.5815 0 .8723 0 1.1089-.0717.5326-.16162.9495-.57846 1.1111-1.11112.0717-.23659.0717-.52733.0717-1.10881 0-.58149 0-.87223-.0717-1.10881-.1616-.53267-.5785-.94951-1.1111-1.11109-.2366-.07177-.5274-.07177-1.1089-.07177z"/></g></svg>