<svg fill="none" height="26" viewBox="0 0 26 26" width="26" xmlns="http://www.w3.org/2000/svg"><g stroke="#fff" stroke-width="1.5"><path d="m19.6 1c1.7552.19429 2.9366.63338 3.8184 1.62575 1.5816 1.77994 1.5816 4.6447 1.5816 10.37425 0 5.7296 0 8.5943-1.5816 10.3743-.8818.9924-2.0632 1.4314-3.8184 1.6257m-13.19999 0c-1.75516-.1943-2.93659-.6333-3.81838-1.6257-1.58163-1.78-1.58163-4.6447-1.58163-10.3743 0-5.72955 0-8.59431 1.58163-10.37425.88179-.99237 2.06322-1.43146 3.81838-1.62575" stroke-linecap="round" stroke-linejoin="round"/><path d="m13 9.66669c3.6819 0 6.6667-1.11929 6.6667-2.5s-2.9848-2.5-6.6667-2.5-6.66666 1.11929-6.66666 2.5 2.98476 2.5 6.66666 2.5z"/><path d="m8.83334 12.0349c.50132.1506 1.06195.2748 1.66666.3665" stroke-linecap="round"/><path d="m19.6667 13c0 1.3808-2.9848 2.5-6.6667 2.5s-6.66666-1.1192-6.66666-2.5"/><path d="m8.83334 17.8682c.50132.1506 1.06195.2748 1.66666.3665" stroke-linecap="round"/><path d="m19.6667 7.16669v11.66671c0 1.3807-2.9848 2.5-6.6667 2.5s-6.66666-1.1193-6.66666-2.5v-11.66671"/></g></svg>