<svg fill="none" height="26" viewBox="0 0 26 26" width="26" xmlns="http://www.w3.org/2000/svg"><g stroke="#fff" stroke-linecap="round" stroke-linejoin="round" stroke-width="1.5"><path d="m19.6 1c1.7552.19429 2.9366.63338 3.8184 1.62575 1.5816 1.77994 1.5816 4.6447 1.5816 10.37425 0 5.7296 0 8.5943-1.5816 10.3743-.8818.9924-2.0632 1.4314-3.8184 1.6257m-13.19999 0c-1.75516-.1943-2.93659-.6333-3.81838-1.6257-1.58163-1.78-1.58163-4.6447-1.58163-10.3743 0-5.72955 0-8.59431 1.58163-10.37425.88179-.99237 2.06322-1.43146 3.81838-1.62575"/><path d="m19.6667 8.37054-6.6667 2.96296-6.66667-2.96296"/><path d="m18.1246 6.94427-3.5-1.55556c-1.0343-.45967-2.2149-.45967-3.2492 0l-3.49995 1.55556c-1.44452.642-2.37545 2.07449-2.37545 3.65523v4.801c0 1.5808.93093 3.0133 2.37545 3.6553l3.49995 1.5555c1.0343.4597 2.2149.4597 3.2492 0l3.5-1.5555c1.4445-.642 2.3754-2.0745 2.3754-3.6553v-4.801c0-1.58074-.9309-3.01323-2.3754-3.65523z"/><path d="m13 11.3334v9.1666"/></g></svg>