<svg fill="none" height="26" viewBox="0 0 26 26" width="26" xmlns="http://www.w3.org/2000/svg"><g stroke="#fff" stroke-linejoin="round" stroke-width="1.5"><path d="m19.6 1c1.7552.19429 2.9366.63338 3.8184 1.62575 1.5816 1.77994 1.5816 4.6447 1.5816 10.37425 0 5.7296 0 8.5943-1.5816 10.3743-.8818.9924-2.0632 1.4314-3.8184 1.6257m-13.19999 0c-1.75516-.1943-2.93659-.6333-3.81838-1.6257-1.58163-1.78-1.58163-4.6447-1.58163-10.3743 0-5.72955 0-8.59431 1.58163-10.37425.88179-.99237 2.06322-1.43146 3.81838-1.62575" stroke-linecap="round"/><path d="m9.66666 16.2407c.12577.4428.37934.9259 1.04154.9259 1.1459 0 1.4324-.9259 2.2918-4.1666.8594-3.24076 1.1459-4.16669 2.2917-4.16669.6622 0 .9159.48314 1.0416.92593m-4.7222 2.08336h3.6806" stroke-linecap="round"/><path d="m5.08334 13c0-3.73197 0-5.59795 1.15937-6.75732 1.15938-1.15937 3.02535-1.15937 6.75729-1.15937 3.7319 0 5.5979 0 6.7573 1.15937s1.1594 3.02535 1.1594 6.75732c0 3.7319 0 5.5979-1.1594 6.7573-1.1594 1.1593-3.0254 1.1593-6.7573 1.1593-3.73194 0-5.59791 0-6.75729-1.1593-1.15937-1.1594-1.15937-3.0254-1.15937-6.7573z"/></g></svg>