<svg fill="none" height="26" viewBox="0 0 26 26" width="26" xmlns="http://www.w3.org/2000/svg"><path d="m19.6 1c1.7552.19429 2.9366.63338 3.8184 1.62575 1.5816 1.77994 1.5816 4.6447 1.5816 10.37425 0 5.7296 0 8.5943-1.5816 10.3743-.8818.9924-2.0632 1.4314-3.8184 1.6257m-13.19999 0c-1.75516-.1943-2.93659-.6333-3.81838-1.6257-1.58163-1.78-1.58163-4.6447-1.58163-10.3743 0-5.72955 0-8.59431 1.58163-10.37425.88179-.99237 2.06322-1.43146 3.81838-1.62575" stroke="#fff" stroke-linecap="round" stroke-linejoin="round" stroke-width="1.5"/><path d="m15.477 9.85516h-.0442c-.7742-.6055-1.7585-.90212-2.7516-.82913s-1.722.16519-2.3926.87688c-.93036-.17984-2.74497-.26529-4.11747.79589.31303-1.11513.91504-1.81637 1.74916-2.64411s1.87281-1.43631 3.01791-1.76822c1.1452-.33191 2.359-.3762 3.5268-.1287 1.1678.24751 2.251.77864 3.1473 1.54323l-.0043.03601.0318-.0307c1.0266.8802 1.765 2.03086 2.1246 3.31079.9042.5911 1.5875 1.4477 1.9489 2.4431.3614.9955.3817 2.0769.0578 3.0844-.3239 1.0074-.9747 1.8874-1.8561 2.5096-.8815.6223-1.9468.9539-3.0383.9457h-3.9089l-.022-.0213h-3.89241c-1.10719.0047-2.18534-.342-3.06892-.9869l.00549-.0212-.00549.0053c-.83956-.624-1.45647-1.4859-1.76459-2.4652s-.29205-2.0272.04596-2.9973.98109-1.8139 1.83941-2.4136 1.88902-.9254 2.94814-.9315c.78329-.0027 1.55661.1698 2.25951.5039.7028.3341 1.3162.8208 1.7921 1.4221l-2.2674 2.1913c-.1301-.2785-.3283-.5223-.5774-.7104-.2491-.1882-.5417-.3152-.85274-.3701-.31104-.0548-.63121-.036-.93304.0551-.30183.091-.57631.2514-.79988.4675-.22357.216-.38957.4813-.48374.773s-.11371.6011-.05694.9017.18815.5834.38287.8242c.19473.2407.44698.4322.73512.558l-.00172.0017c.25227.1107.52615.1681.80326.1681h3.90891v.0266l.0055-.0054h3.9089c.2566 0 .5108-.0488.7479-.1437.2371-.095.4526-.2341.6341-.4095s.3254-.3836.4236-.6128c.0983-.2292.1488-.4748.1488-.7228 0-.2481-.0505-.4937-.1488-.7229-.0982-.2291-.2421-.4374-.4236-.6128-.1815-.1753-.397-.3145-.6341-.4094s-.4913-.1438-.7479-.1438v-.3767c.0111-.5711-.112-1.1372-.3603-1.6555-.2421-.5058-.5972-.9533-1.0394-1.31044z" fill="#fff"/></svg>