<svg fill="none" height="26" viewBox="0 0 26 26" width="26" xmlns="http://www.w3.org/2000/svg"><g stroke="#fff" stroke-width="1.5"><g stroke-linecap="round"><path d="m19.6 1c1.7552.19429 2.9366.63338 3.8184 1.62575 1.5816 1.77994 1.5816 4.6447 1.5816 10.37425 0 5.7296 0 8.5943-1.5816 10.3743-.8818.9924-2.0632 1.4314-3.8184 1.6257m-13.19999 0c-1.75516-.1943-2.93659-.6333-3.81838-1.6257-1.58163-1.78-1.58163-4.6447-1.58163-10.3743 0-5.72955 0-8.59431 1.58163-10.37425.88179-.99237 2.06322-1.43146 3.81838-1.62575" stroke-linejoin="round"/><path d="m13 18v3.3333" stroke-linejoin="round"/><path d="m11.3333 18-4.16664 3.3333" stroke-linejoin="round"/><path d="m14.6667 18 4.1666 3.3333" stroke-linejoin="round"/></g><path d="m5.08334 13c0 2.357 0 3.5355.73224 4.2678.73223.7322 1.91074.7322 4.26772.7322h5.8334c2.357 0 3.5355 0 4.2677-.7322.7323-.7323.7323-1.9108.7323-4.2678v-3.33331c0-2.35703 0-3.53554-.7323-4.26777-.7322-.73223-1.9107-.73223-4.2677-.73223h-5.8334c-2.35698 0-3.53549 0-4.26772.73223-.73224.73223-.73224 1.91074-.73224 4.26777z"/><path d="m9.66666 13.8333v-2.5m3.33334 2.5v-4.99999m3.3333 4.99999v-1.6667" stroke-linecap="round"/></g></svg>