<svg fill="none" height="26" viewBox="0 0 26 26" width="26" xmlns="http://www.w3.org/2000/svg"><path d="m19.6 1c1.7552.19429 2.9366.63338 3.8184 1.62575 1.5816 1.77994 1.5816 4.6447 1.5816 10.37425 0 5.7296 0 8.5943-1.5816 10.3743-.8818.9924-2.0632 1.4314-3.8184 1.6257m-13.19999 0c-1.75516-.1943-2.93659-.6333-3.81838-1.6257-1.58163-1.78-1.58163-4.6447-1.58163-10.3743 0-5.72955 0-8.59431 1.58163-10.37425.88179-.99237 2.06322-1.43146 3.81838-1.62575" stroke="#fff" stroke-linecap="round" stroke-linejoin="round" stroke-width="1.5"/><path d="m13.1489 22c-.0738-.0012-.1458-.0226-.2083-.0618-.0626-.0393-.1133-.0949-.1468-.161-.0328-.0638-.0467-.1356-.0402-.2072.0065-.0715.0332-.1396.0769-.1964l4.208-5.8227-7.37336 3.0298c-.04975.0226-.10374.0343-.15835.0344-.0848-.0009-.16711-.029-.23488-.0803-.06778-.0512-.11748-.1228-.14183-.2045-.02408-.081-.02079-.1677.00937-.2467.03015-.0789.08547-.1456.15732-.1896l6.47993-3.8447-11.41133-.6591c-.09904-.0065-.19191-.0506-.25976-.1234s-.10561-.1687-.10561-.2685c0-.0997.03776-.1957.10561-.2685s.16072-.1169.25976-.1234l11.41793-.6591-6.48403-3.84383c-.07088-.0446-.12514-.11144-.15437-.19017s-.03181-.16495-.00732-.2453c.02396-.0817.07344-.15349.14113-.20476.06768-.05127.14999-.07931.23475-.07997.05455-.00028.10854.01114.15835.0335l7.36919 3.03153-4.2088-5.82189c-.0434-.05713-.0698-.12539-.0763-.19694s.0072-.14349.0396-.20755c.0335-.06631.0845-.12208.1474-.16122s.1353-.06014.2093-.0607c.0511.00034.1016.01096.1486.03124.0469.02028.0894.04981.1248.08684l8.3884 8.42802c.1191.1201.186.2827.186.4522 0 .1696-.0669.3322-.186.4522l-8.3918 8.4314c-.0354.0371-.0778.0666-.1247.0869-.047.0202-.0975.0309-.1486.0312z" fill="#fff"/></svg>