<svg fill="none" height="26" viewBox="0 0 26 26" width="26" xmlns="http://www.w3.org/2000/svg"><g stroke="#fff" stroke-width="1.5"><path d="m19.6 1c1.7552.19429 2.9366.63338 3.8184 1.62575 1.5816 1.77994 1.5816 4.6447 1.5816 10.37425 0 5.7296 0 8.5943-1.5816 10.3743-.8818.9924-2.0632 1.4314-3.8184 1.6257m-13.19999 0c-1.75516-.1943-2.93659-.6333-3.81838-1.6257-1.58163-1.78-1.58163-4.6447-1.58163-10.3743 0-5.72955 0-8.59431 1.58163-10.37425.88179-.99237 2.06322-1.43146 3.81838-1.62575" stroke-linecap="round" stroke-linejoin="round"/><path d="m13 4.75c4.5563 0 8.25 3.69365 8.25 8.25 0 4.5563-3.6937 8.25-8.25 8.25-4.55635 0-8.25-3.6937-8.25-8.25 0-4.55635 3.69365-8.25 8.25-8.25z"/><path d="m13 4.75c4.5563 0 8.25 3.69365 8.25 8.25 0 4.5563-3.6937 8.25-8.25 8.25-4.55635 0-8.25-3.6937-8.25-8.25 0-4.55635 3.69365-8.25 8.25-8.25z"/></g><path d="m10.2609 13c0-1.4996 1.2391-2.7391 2.7974-2.7391.8908 0 1.6806.4064 2.1926 1.0379.3062.3777.8606.4357 1.2383.1295.3778-.3063.4357-.8607.1295-1.2384-.8358-1.031-2.1222-1.6899-3.5604-1.6899-2.5042 0-4.5583 2.0015-4.5583 4.5s2.0541 4.5 4.5583 4.5c1.4382 0 2.7246-.6589 3.5604-1.6899.3062-.3777.2483-.9321-.1295-1.2384-.3777-.3062-.9321-.2482-1.2383.1295-.512.6315-1.3018 1.0379-2.1926 1.0379-1.5583 0-2.7974-1.2395-2.7974-2.7391z" fill="#fff"/><path d="m16.6196 13.8804c.4862 0 .8804-.3941.8804-.8804s-.3942-.8804-.8804-.8804c-.4863 0-.8805.3941-.8805.8804s.3942.8804.8805.8804z" fill="#fff"/></svg>