<svg fill="none" height="26" viewBox="0 0 26 26" width="26" xmlns="http://www.w3.org/2000/svg"><g stroke="#fff"><g stroke-width="1.5"><path d="m19.6 1c1.7552.19429 2.9366.63338 3.8184 1.62575 1.5816 1.77994 1.5816 4.6447 1.5816 10.37425 0 5.7296 0 8.5943-1.5816 10.3743-.8818.9924-2.0632 1.4314-3.8184 1.6257m-13.19999 0c-1.75516-.1943-2.93659-.6333-3.81838-1.6257-1.58163-1.78-1.58163-4.6447-1.58163-10.3743 0-5.72955 0-8.59431 1.58163-10.37425.88179-.99237 2.06322-1.43146 3.81838-1.62575" stroke-linecap="round" stroke-linejoin="round"/><path d="m20.2587 10.251 1.0068 3.3563c.0327.1087.0489.163.0578.2189l.0024.017c.0076.056.0076.1126.0076.226 0 2.9139 0 4.3708-.849 5.3199-.0823.0921-.1698.1796-.2619.2619-.9491.849-2.406.849-5.3198.849h-3.8052c-2.91384 0-4.37075 0-5.3198-.849-.0921-.0823-.17955-.1698-.26195-.2619-.84898-.9491-.84898-2.406-.84898-5.3199 0-.1134 0-.17.00763-.226l.0025-.017c.00878-.0559.02508-.1102.05767-.2189l1.00689-3.3563c.6866-2.28863 1.0299-3.43295 1.91565-4.09198.88575-.65902 2.08045-.65902 4.46979-.65902h1.7464c2.3894 0 3.5841 0 4.4698.65902.8858.65903 1.2291 1.80335 1.9157 4.09198z"/><path d="m4.66667 13.8333h16.66663" stroke-linejoin="round"/></g><path d="m17.9907 17.1667h.0093m-4.1667 0h.0094" stroke-linecap="round" stroke-linejoin="round" stroke-width="2"/></g></svg>